<svg width="243" height="60" viewBox="0 0 243 60" fill="none" xmlns="http://www.w3.org/2000/svg">
<path d="M14.1079 25.7292C14.1079 30.3516 17.8029 34.1017 22.3574 34.1017V15.374H14.1079V25.7292Z" fill="white"/>
<path d="M25.584 28.0066V34.1019H31.5897C32.8288 34.1019 33.8223 33.0822 33.8223 31.836V25.7407H27.8166C26.5775 25.7407 25.584 26.7604 25.584 28.0066Z" fill="white"/>
<path d="M53.9477 0H0.219727V54.5288C0.219727 57.4744 2.57514 59.8536 5.46638 59.8536H59.1943V5.32486C59.1943 2.37919 56.8501 0 53.9477 0ZM48.5224 47.7424H33.8318V39.6418C33.8318 38.3843 32.8271 37.3759 31.5992 37.3759H25.5934V47.7424H13.1354C11.8963 47.7424 10.9028 46.7228 10.9028 45.4765V12.0999H25.5934V20.1891C25.5934 21.4467 26.5981 22.455 27.826 22.455H33.8318V12.0999H46.2898C47.5289 12.0999 48.5224 13.1195 48.5224 14.3658V47.7424Z" fill="white"/>
<path d="M14.1079 33.7729V42.9272C14.1079 43.7769 14.7889 44.4793 15.6373 44.4793H22.3574V37.3757C16.7424 37.3757 14.1079 33.7729 14.1079 33.7729Z" fill="white"/>
<path d="M43.7788 15.374H37.0586V22.4776C42.6736 22.4776 45.3081 26.0804 45.3081 26.0804V16.9262C45.3081 16.0764 44.6272 15.374 43.7788 15.374Z" fill="white"/>
<path d="M37.0483 25.7291V44.4681H45.2979V34.0903C45.2979 29.4678 41.6029 25.7178 37.0483 25.7178V25.7291Z" fill="white"/>
<path d="M77.1011 41.9127H75.9736V40.7798H80.0147V41.9127H78.8872V46.4559H80.0147V47.6001H75.9736V46.4559H77.1011V41.9127Z" fill="white"/>
<path d="M94.85 40.7695H96.424V47.6012H95.2407L92.8294 44.225V47.6012H91.2666V40.7695H92.4387L94.85 44.1457V40.7695Z" fill="white"/>
<path d="M110.591 42.0374V47.6001H108.805V42.0374H107.007V40.7798H112.377V42.0374H110.591Z" fill="white"/>
<path d="M122.971 40.7695H127.012V42.0271H124.768V43.2847H127.012V44.5309H124.768V46.355H127.012V47.6012H122.971V40.7695Z" fill="white"/>
<path d="M141.737 45.3235H141.067V44.1906H143.411V47.6007H143.032L142.563 47.1929C142.15 47.5214 141.625 47.714 140.966 47.714C139.281 47.714 138.153 46.1506 138.153 44.1906C138.153 42.2306 139.281 40.6558 140.966 40.6558C142.139 40.6558 142.92 41.3582 143.4 42.0719L142.607 42.9783C142.239 42.5818 141.837 42.2079 141.257 42.2079C140.408 42.2079 139.939 43.1143 139.939 44.1792C139.939 45.2442 140.408 46.1506 141.257 46.1506C141.435 46.1506 141.603 46.1052 141.737 46.0373V45.3122V45.3235Z" fill="white"/>
<path d="M160.669 47.6001H158.637L157.019 45.3342H156.472V47.6001H154.674V40.7798H157.242C158.727 40.7798 159.932 41.7994 159.932 43.057C159.932 43.8274 159.463 44.5072 158.76 44.9264L160.658 47.6001H160.669ZM158.146 43.057C158.146 42.4226 157.644 41.9127 157.03 41.9127H156.472V44.19H157.03C157.644 44.19 158.146 43.6801 158.146 43.057Z" fill="white"/>
<path d="M172.891 47.6011H171.094V43.6245C171.094 41.6985 172.266 40.6675 173.661 40.6675C175.057 40.6675 176.24 41.6985 176.24 43.6245V47.6011H174.443V45.4372H172.88V47.6011H172.891ZM174.454 43.2279C174.454 42.4915 174.13 42.095 173.661 42.095C173.192 42.095 172.891 42.4915 172.891 43.2279V44.1909H174.454V43.2279Z" fill="white"/>
<path d="M190.418 42.0374V47.6001H188.621V42.0374H186.824V40.7798H192.204V42.0374H190.418Z" fill="white"/>
<path d="M202.798 40.7695H206.828V42.0271H204.584V43.2847H206.828V44.5309H204.584V46.355H206.828V47.6012H202.798V40.7695Z" fill="white"/>
<path d="M218.089 40.7798H220.333C222.008 40.7798 223.358 42.2979 223.358 44.2013C223.358 46.1046 222.008 47.6115 220.333 47.6115H218.089V40.7911V40.7798ZM221.449 44.19C221.449 43.0004 220.858 42.026 220.121 42.026H219.887V46.3199H220.121C220.858 46.3199 221.449 45.3569 221.449 44.1786" fill="white"/>
<path d="M132.034 27.3094V36.0558H126.241V12.4111H134.367C136.176 12.4111 137.716 12.5924 138.989 12.9323C140.262 13.2835 141.3 13.7707 142.115 14.4051C142.918 15.0282 143.51 15.776 143.867 16.6257C144.236 17.4754 144.414 18.4158 144.414 19.4128C144.414 20.1832 144.303 20.9082 144.091 21.588C143.878 22.2678 143.555 22.9022 143.119 23.48C142.695 24.0578 142.159 24.579 141.545 25.0322C140.92 25.4853 140.206 25.8592 139.391 26.1538C139.782 26.3351 140.139 26.5617 140.474 26.8449C140.809 27.1168 141.099 27.4454 141.367 27.8192L146.68 36.0444H141.434C140.462 36.0444 139.759 35.6932 139.346 35.0021L135.194 28.1364C135.004 27.8419 134.78 27.6266 134.546 27.4907C134.3 27.3547 133.966 27.2867 133.519 27.2867H132.046L132.034 27.3094ZM132.034 23.5367H134.367C135.16 23.5367 135.83 23.446 136.388 23.2534C136.946 23.0608 137.393 22.8003 137.75 22.4717C138.107 22.1318 138.364 21.7466 138.52 21.2934C138.676 20.8403 138.755 20.3644 138.755 19.8433C138.755 18.801 138.397 17.9966 137.683 17.4074C136.968 16.8296 135.863 16.5351 134.367 16.5351H132.034V23.548V23.5367Z" fill="white"/>
<path d="M145.934 12.4111H150.6C151.102 12.4111 151.504 12.5244 151.817 12.7397C152.129 12.9663 152.364 13.2495 152.52 13.5894L157.353 26.2444C157.577 26.7996 157.8 27.4 158.023 28.0458C158.246 28.6916 158.447 29.3714 158.637 30.0851C158.793 29.3714 158.983 28.6916 159.173 28.0458C159.374 27.4 159.586 26.7996 159.82 26.2444L164.621 13.5894C164.743 13.2835 164.978 13.0116 165.302 12.7737C165.625 12.5358 166.027 12.4111 166.507 12.4111H171.207L161.194 36.0558H155.947L145.934 12.4111Z" fill="white"/>
<path d="M189.282 12.4111V16.637H179.023V22.1545H186.882V26.2104H179.023V31.8412H189.282V36.0558H173.196V12.4111H189.282Z" fill="white"/>
<path d="M206.652 17.2153C206.484 17.4758 206.294 17.6684 206.116 17.8044C205.926 17.929 205.68 17.997 205.39 17.997C205.122 17.997 204.843 17.9177 204.542 17.7591C204.24 17.6005 203.894 17.4192 203.515 17.2266C203.135 17.034 202.7 16.8527 202.198 16.7054C201.706 16.5468 201.148 16.4675 200.512 16.4675C199.429 16.4675 198.614 16.6828 198.078 17.1246C197.542 17.5665 197.286 18.1556 197.286 18.9033C197.286 19.3792 197.442 19.7757 197.766 20.0816C198.089 20.3988 198.503 20.6707 199.027 20.8973C199.541 21.1239 200.143 21.3279 200.813 21.5205C201.483 21.7131 202.164 21.917 202.867 22.1549C203.559 22.3928 204.251 22.6647 204.921 22.9706C205.591 23.2879 206.183 23.6844 206.707 24.1716C207.232 24.6587 207.645 25.2479 207.969 25.9503C208.293 26.6414 208.449 27.4911 208.449 28.4768C208.449 29.5644 208.248 30.5954 207.846 31.547C207.444 32.4987 206.864 33.3258 206.105 34.0395C205.345 34.7533 204.408 35.3084 203.291 35.7163C202.175 36.1242 200.914 36.3281 199.485 36.3281C198.715 36.3281 197.922 36.2488 197.107 36.1015C196.303 35.9542 195.522 35.739 194.763 35.4557C194.004 35.1838 193.301 34.8553 192.642 34.47C191.972 34.0962 191.403 33.6657 190.912 33.2011L192.631 30.6407C192.765 30.4594 192.943 30.3008 193.178 30.1762C193.401 30.0516 193.647 29.9949 193.903 29.9949C194.249 29.9949 194.595 30.0969 194.941 30.3008C195.288 30.5047 195.689 30.7313 196.125 30.9806C196.56 31.2298 197.074 31.4564 197.643 31.6603C198.212 31.8643 198.893 31.9662 199.663 31.9662C200.713 31.9662 201.539 31.751 202.119 31.3091C202.7 30.8673 202.99 30.1762 202.99 29.2245C202.99 28.6694 202.834 28.2275 202.51 27.8763C202.186 27.5251 201.773 27.2418 201.249 27.0153C200.724 26.7887 200.132 26.5847 199.474 26.4148C198.804 26.2448 198.134 26.0522 197.431 25.837C196.728 25.6217 196.047 25.3611 195.388 25.0553C194.718 24.7494 194.127 24.3415 193.613 23.8317C193.088 23.3332 192.675 22.6987 192.352 21.951C192.028 21.2032 191.872 20.2742 191.872 19.1639C191.872 18.2802 192.061 17.4079 192.441 16.5695C192.821 15.7311 193.379 14.972 194.104 14.3149C194.841 13.6578 195.734 13.1253 196.795 12.7288C197.855 12.3322 199.072 12.1396 200.445 12.1396C201.215 12.1396 201.963 12.1963 202.689 12.3096C203.414 12.4229 204.106 12.5928 204.754 12.8194C205.401 13.0347 206.015 13.3066 206.573 13.6125C207.143 13.9184 207.645 14.2696 208.092 14.6548L206.652 17.2039V17.2153Z" fill="white"/>
<path d="M229.813 12.4111V16.7617H222.78V36.0558H216.975V16.7617H209.942V12.4111H229.813Z" fill="white"/>
<path d="M114.6 12.4111H108.661L98.9829 36.0558H103.515C103.995 36.0558 104.397 35.9311 104.721 35.6932C105.044 35.4553 105.268 35.1721 105.402 34.8775L106.54 31.6826H116.71L117.849 34.8775C118.005 35.2287 118.239 35.5119 118.552 35.7272C118.864 35.9538 119.266 36.0558 119.769 36.0558H124.256L114.589 12.4111H114.6ZM110.514 20.5797C110.682 20.1718 110.872 19.6847 111.05 19.1182C111.24 18.5517 111.43 17.9399 111.608 17.2828C111.798 17.9286 111.999 18.5291 112.189 19.0955C112.379 19.6507 112.568 20.1378 112.736 20.5457L115.035 27.0262H108.215L110.514 20.5797Z" fill="white"/>
<path d="M91.1799 12.4111V22.8343H81.0215V12.4111H75.1943V36.0558H81.0215V27.502H91.1799V36.0558H97.0182V12.4111H91.1799Z" fill="white"/>
<path d="M237.603 12.4111V13.0796H236.32V16.739H235.527V13.0796H234.243V12.4111H237.603Z" fill="white"/>
<path d="M240.392 15.1416C240.425 15.2096 240.448 15.2776 240.47 15.3456C240.503 15.2663 240.526 15.1983 240.559 15.1303C240.593 15.0623 240.626 14.9944 240.66 14.9264L241.921 12.5359C241.921 12.5359 241.955 12.4792 241.966 12.4679C241.977 12.4452 241.999 12.4339 242.022 12.4226C242.044 12.4226 242.066 12.4112 242.089 12.4112C242.111 12.4112 242.144 12.4112 242.178 12.4112H242.781V16.7278H242.077V13.9407C242.077 13.9407 242.077 13.8274 242.077 13.7708C242.077 13.7028 242.077 13.6461 242.089 13.5782L240.805 16.0253C240.738 16.1386 240.648 16.2066 240.526 16.2066H240.414C240.291 16.2066 240.191 16.15 240.135 16.0253L238.84 13.5668C238.84 13.6348 238.84 13.7028 238.851 13.7594C238.851 13.8161 238.851 13.8727 238.851 13.9294V16.7164H238.148V12.3999H238.751C238.751 12.3999 238.818 12.3999 238.84 12.3999C238.862 12.3999 238.885 12.3999 238.907 12.4112C238.929 12.4112 238.941 12.4339 238.963 12.4565C238.974 12.4679 238.996 12.5019 239.007 12.5245L240.28 14.9264C240.314 14.9944 240.347 15.0623 240.369 15.1303" fill="white"/>
</svg>
