<svg width="21" height="20" viewBox="0 0 21 20" fill="none" xmlns="http://www.w3.org/2000/svg">
<path d="M9.98376 12.8083C9.82542 12.8083 9.66709 12.75 9.54209 12.625C9.30042 12.3833 9.30042 11.9833 9.54209 11.7417L11.2338 10.05L9.54209 8.35833C9.30042 8.11667 9.30042 7.71667 9.54209 7.475C9.78376 7.23333 10.1838 7.23333 10.4254 7.475L12.5588 9.60833C12.8004 9.85 12.8004 10.25 12.5588 10.4917L10.4254 12.625C10.3088 12.75 10.1421 12.8083 9.98376 12.8083Z" fill="#252525"/>
<path d="M12.059 10.675H3.58398C3.24232 10.675 2.95898 10.3917 2.95898 10.05C2.95898 9.70833 3.24232 9.425 3.58398 9.425H12.059C12.4007 9.425 12.684 9.70833 12.684 10.05C12.684 10.3917 12.4007 10.675 12.059 10.675Z" fill="#252525"/>
<path d="M10.2505 17.2917C9.90882 17.2917 9.62549 17.0083 9.62549 16.6667C9.62549 16.325 9.90882 16.0417 10.2505 16.0417C13.8088 16.0417 16.2922 13.5583 16.2922 10C16.2922 6.44167 13.8088 3.95833 10.2505 3.95833C9.90882 3.95833 9.62549 3.675 9.62549 3.33333C9.62549 2.99167 9.90882 2.70833 10.2505 2.70833C14.5422 2.70833 17.5422 5.70833 17.5422 10C17.5422 14.2917 14.5422 17.2917 10.2505 17.2917Z" fill="#252525"/>
</svg>
