<svg width="40" height="40" viewBox="0 0 40 40" fill="none" xmlns="http://www.w3.org/2000/svg">
<path d="M25.0842 15H9.16667C6.86548 15 5 13.1345 5 10.8333C5 8.53215 6.86548 6.66667 9.16667 6.66667H25.0842M14.9158 33.3333H30.8333C33.1345 33.3333 35 31.4679 35 29.1667C35 26.8655 33.1345 25 30.8333 25H14.9158M5 29.1667C5 32.3883 7.61167 35 10.8333 35C14.055 35 16.6667 32.3883 16.6667 29.1667C16.6667 25.945 14.055 23.3333 10.8333 23.3333C7.61167 23.3333 5 25.945 5 29.1667ZM35 10.8333C35 14.055 32.3883 16.6667 29.1667 16.6667C25.945 16.6667 23.3333 14.055 23.3333 10.8333C23.3333 7.61167 25.945 5 29.1667 5C32.3883 5 35 7.61167 35 10.8333Z" stroke="#C7D1F9" stroke-width="3" stroke-linecap="round" stroke-linejoin="round"/>
</svg>
