<svg width="22" height="22" viewBox="0 0 22 22" fill="none" xmlns="http://www.w3.org/2000/svg">
<path d="M14.5 5.75V5.05C14.5 4.06991 14.5 3.57986 14.3093 3.20552C14.1415 2.87623 13.8738 2.60852 13.5445 2.44074C13.1701 2.25 12.6801 2.25 11.7 2.25H10.3C9.31991 2.25 8.82986 2.25 8.45552 2.44074C8.12623 2.60852 7.85852 2.87623 7.69074 3.20552C7.5 3.57986 7.5 4.06991 7.5 5.05V5.75M9.25 10.5625V14.9375M12.75 10.5625V14.9375M3.125 5.75H18.875M17.125 5.75V15.55C17.125 17.0201 17.125 17.7552 16.8389 18.3167C16.5872 18.8107 16.1857 19.2122 15.6917 19.4639C15.1302 19.75 14.3951 19.75 12.925 19.75H9.075C7.60486 19.75 6.86979 19.75 6.30828 19.4639C5.81435 19.2122 5.41278 18.8107 5.16111 18.3167C4.875 17.7552 4.875 17.0201 4.875 15.55V5.75" stroke="#F35959" stroke-width="1.5" stroke-linecap="round" stroke-linejoin="round"/>
</svg>
