<svg width="40" height="40" viewBox="0 0 40 40" fill="none" xmlns="http://www.w3.org/2000/svg">
<path d="M36.6663 35V31.6667C36.6663 28.5603 34.5417 25.9501 31.6663 25.21M25.833 5.4846C28.2762 6.47358 29.9997 8.86885 29.9997 11.6667C29.9997 14.4645 28.2762 16.8598 25.833 17.8487M28.333 35C28.333 31.8937 28.333 30.3406 27.8255 29.1154C27.1489 27.4819 25.8511 26.1841 24.2176 25.5075C22.9924 25 21.4393 25 18.333 25H13.333C10.2267 25 8.67359 25 7.44845 25.5075C5.81493 26.1841 4.5171 27.4819 3.84048 29.1154C3.33301 30.3406 3.33301 31.8937 3.33301 35M22.4997 11.6667C22.4997 15.3486 19.5149 18.3333 15.833 18.3333C12.1511 18.3333 9.16634 15.3486 9.16634 11.6667C9.16634 7.98477 12.1511 5 15.833 5C19.5149 5 22.4997 7.98477 22.4997 11.6667Z" stroke="#C7D1F9" stroke-width="3" stroke-linecap="round" stroke-linejoin="round"/>
</svg>
