<svg width="40" height="40" viewBox="0 0 40 40" fill="none" xmlns="http://www.w3.org/2000/svg">
<path d="M25.5202 16.6667C27.8007 17.3772 29.9376 18.5318 31.8003 20.0834M37.6335 14.1666C32.7628 9.87323 26.493 7.50437 20.0002 7.50437C18.9918 7.50437 17.9889 7.56151 16.9957 7.67411M14.2166 26.0167C15.9086 24.8146 17.9328 24.1688 20.0083 24.1688C22.0838 24.1688 24.108 24.8146 25.8 26.0167M20.0003 32.5H20.017M1.98926 14.5013C4.21193 12.4645 6.78098 10.7996 9.59784 9.6051M7.88688 20.4049C10.2159 18.3533 13.0699 16.8836 16.2214 16.2232M26.1642 26.2918C24.4657 24.9604 22.3256 24.1667 20.0001 24.1667C17.6395 24.1667 15.4699 24.9846 13.7593 26.3526M5.00033 5L35.0003 35" stroke="#C7D1F9" stroke-width="3" stroke-linecap="round" stroke-linejoin="round"/>
</svg>
