<svg width="25" height="25" viewBox="0 0 25 25" fill="none" xmlns="http://www.w3.org/2000/svg">
<path d="M9.58301 17.1499C9.58301 17.836 9.01915 18.3999 8.33301 18.3999H6.33301C5.64687 18.3999 5.08301 17.836 5.08301 17.1499C5.08301 16.4638 5.64687 15.8999 6.33301 15.8999H8.33301C9.01915 15.8999 9.58301 16.4638 9.58301 17.1499ZM9.58301 17.1499C9.58301 16.4638 10.1469 15.8999 10.833 15.8999H14.833C15.5192 15.8999 16.083 16.4638 16.083 17.1499C16.083 17.836 15.5192 18.3999 14.833 18.3999H10.833C10.1469 18.3999 9.58301 17.836 9.58301 17.1499ZM3.54297 11.3999H21.123C21.5169 11.3999 21.833 11.716 21.833 12.1099V17.1001C21.8329 19.1139 20.1964 20.7495 18.1826 20.7495H6.47266C4.45896 20.7493 2.83301 19.1236 2.83301 17.1099V12.1099L2.84766 11.9663C2.91357 11.642 3.19838 11.3999 3.54297 11.3999Z" fill="#1F2937" stroke="#1F2937"/>
<path d="M6.47266 4.5498H12.623C13.0169 4.54983 13.333 4.86594 13.333 5.25977V8.18945C13.333 8.5833 13.0169 8.89939 12.623 8.89941H3.54297C3.15367 8.89939 2.8351 8.57922 2.83301 8.17383C2.84194 7.17623 3.23843 6.27134 3.89648 5.61328C4.55546 4.95431 5.46933 4.5499 6.47266 4.5498Z" fill="#1F2937" stroke="#1F2937"/>
<path d="M17.3633 3.1499H20.3027C20.8378 3.1499 21.2063 3.30833 21.4404 3.54248C21.6746 3.77663 21.833 4.1451 21.833 4.68018V7.61963C21.833 8.15471 21.6746 8.52317 21.4404 8.75732C21.2063 8.99148 20.8378 9.1499 20.3027 9.1499H17.3633C16.8282 9.1499 16.4597 8.99148 16.2256 8.75732C15.9914 8.52317 15.833 8.15471 15.833 7.61963V4.68018L15.8398 4.48682C15.8733 4.0547 16.0207 3.74734 16.2256 3.54248C16.4597 3.30833 16.8282 3.1499 17.3633 3.1499ZM21.21 3.99268C20.7877 3.6472 20.1575 3.6805 19.7842 4.11279L19.7832 4.11475L18.1309 6.04639L17.8145 5.73389H17.8135C17.405 5.31793 16.7603 5.35642 16.3799 5.73682C15.9846 6.13208 15.9846 6.77808 16.3799 7.17334L16.3828 7.17627L17.4824 8.25635C17.6819 8.45426 17.9407 8.55029 18.2031 8.55029H18.2227C18.5223 8.55029 18.8018 8.40444 18.9805 8.18604L18.9795 8.18506L21.3428 5.42529C21.6975 5.01138 21.6659 4.35752 21.209 3.99268H21.21Z" fill="#1F2937" stroke="#1F2937"/>
</svg>
