<svg width="40" height="41" viewBox="0 0 40 41" fill="none" xmlns="http://www.w3.org/2000/svg">
<rect y="0.650391" width="40" height="40" rx="20" fill="#F5F5F5"/>
<g opacity="0.08">
<rect x="0.375" y="1.02539" width="39.25" height="39.25" rx="19.625" stroke="black" stroke-width="0.75"/>
</g>
<path d="M11.0561 26.6504H8.80611L12.9027 15.014H15.505L19.6072 26.6504H17.3572L14.2493 17.4004H14.1584L11.0561 26.6504ZM11.13 22.0879H17.2663V23.7811H11.13V22.0879ZM25.0831 26.6504H21.1399V15.014H25.1626C26.3179 15.014 27.3104 15.247 28.1399 15.7129C28.9732 16.175 29.6134 16.8398 30.0604 17.7072C30.5073 18.5746 30.7308 19.6125 30.7308 20.8208C30.7308 22.033 30.5054 23.0746 30.0547 23.9458C29.6077 24.8171 28.9619 25.4856 28.1172 25.9515C27.2763 26.4174 26.2649 26.6504 25.0831 26.6504ZM23.2479 24.8265H24.9808C25.7914 24.8265 26.4676 24.6788 27.0092 24.3833C27.5509 24.0841 27.9581 23.639 28.2308 23.0481C28.5036 22.4534 28.6399 21.711 28.6399 20.8208C28.6399 19.9307 28.5036 19.1921 28.2308 18.6049C27.9581 18.014 27.5547 17.5727 27.0206 17.2811C26.4903 16.9856 25.8312 16.8379 25.0433 16.8379H23.2479V24.8265Z" fill="#535862"/>
</svg>
