<svg width="18" height="19" viewBox="0 0 18 19" fill="none" xmlns="http://www.w3.org/2000/svg">
<path d="M11.25 17.7651H6.75C2.6775 17.7651 0.9375 16.0251 0.9375 11.9526V7.45264C0.9375 3.38014 2.6775 1.64014 6.75 1.64014H11.25C15.3225 1.64014 17.0625 3.38014 17.0625 7.45264V11.9526C17.0625 16.0251 15.3225 17.7651 11.25 17.7651ZM6.75 2.76514C3.2925 2.76514 2.0625 3.99514 2.0625 7.45264V11.9526C2.0625 15.4101 3.2925 16.6401 6.75 16.6401H11.25C14.7075 16.6401 15.9375 15.4101 15.9375 11.9526V7.45264C15.9375 3.99514 14.7075 2.76514 11.25 2.76514H6.75Z" fill="white"/>
<path d="M9 17.7651C8.6925 17.7651 8.4375 17.5101 8.4375 17.2026V2.20264C8.4375 1.89514 8.6925 1.64014 9 1.64014C9.3075 1.64014 9.5625 1.89514 9.5625 2.20264V17.2026C9.5625 17.5101 9.3075 17.7651 9 17.7651Z" fill="white"/>
<path d="M9 8.39014H1.5C1.1925 8.39014 0.9375 8.13514 0.9375 7.82764C0.9375 7.52014 1.1925 7.26514 1.5 7.26514H9C9.3075 7.26514 9.5625 7.52014 9.5625 7.82764C9.5625 8.13514 9.3075 8.39014 9 8.39014Z" fill="white"/>
<path d="M16.5 12.1401H9C8.6925 12.1401 8.4375 11.8851 8.4375 11.5776C8.4375 11.2701 8.6925 11.0151 9 11.0151H16.5C16.8075 11.0151 17.0625 11.2701 17.0625 11.5776C17.0625 11.8851 16.8075 12.1401 16.5 12.1401Z" fill="white"/>
</svg>
