<svg width="28" height="29" viewBox="0 0 28 29" fill="none" xmlns="http://www.w3.org/2000/svg">
<path d="M13.1252 10.0767V13.4133L11.9469 13.005C11.3519 12.795 10.9902 12.5967 10.9902 11.5817C10.9902 10.7533 11.6086 10.0767 12.3669 10.0767H13.1252V10.0767Z" fill="#1F2937"/>
<path d="M17.01 17.7179C17.01 18.5462 16.3917 19.2229 15.6333 19.2229H14.875V15.8862L16.0533 16.2946C16.6483 16.5046 17.01 16.7029 17.01 17.7179Z" fill="#1F2937"/>
<path d="M18.888 2.98291H9.11134C4.86467 2.98291 2.33301 5.51458 2.33301 9.76124V19.5379C2.33301 23.7846 4.86467 26.3162 9.11134 26.3162H18.888C23.1347 26.3162 25.6663 23.7846 25.6663 19.5379V9.76124C25.6663 5.51458 23.1347 2.98291 18.888 2.98291ZM16.6363 14.6496C17.5463 14.9646 18.7597 15.6296 18.7597 17.7179C18.7597 19.5146 17.3597 20.9729 15.633 20.9729H14.8747V21.6496C14.8747 22.1279 14.478 22.5246 13.9997 22.5246C13.5213 22.5246 13.1247 22.1279 13.1247 21.6496V20.9729H12.7047C10.7913 20.9729 9.23968 19.3512 9.23968 17.3679C9.23968 16.8896 9.62468 16.4929 10.1147 16.4929C10.593 16.4929 10.9897 16.8896 10.9897 17.3679C10.9897 18.3946 11.7597 19.2229 12.7047 19.2229H13.1247V15.2679L11.363 14.6496C10.453 14.3346 9.23968 13.6696 9.23968 11.5812C9.23968 9.78458 10.6397 8.32624 12.3663 8.32624H13.1247V7.64958C13.1247 7.17124 13.5213 6.77458 13.9997 6.77458C14.478 6.77458 14.8747 7.17124 14.8747 7.64958V8.32624H15.2947C17.208 8.32624 18.7597 9.94791 18.7597 11.9312C18.7597 12.4096 18.3747 12.8062 17.8847 12.8062C17.4063 12.8062 17.0097 12.4096 17.0097 11.9312C17.0097 10.9046 16.2397 10.0762 15.2947 10.0762H14.8747V14.0312L16.6363 14.6496Z" fill="#1F2937"/>
</svg>
