<svg width="25" height="25" viewBox="0 0 25 25" fill="none" xmlns="http://www.w3.org/2000/svg">
<path d="M19.3096 6.85008H20.6696C20.4796 6.58008 20.2796 6.33008 20.0696 6.08008L19.3096 6.85008Z" fill="#1F2937"/>
<path d="M19.02 5.02011C18.77 4.81011 18.52 4.6101 18.25 4.4201V5.7801L19.02 5.02011Z" fill="#1F2937"/>
<path d="M20.0795 6.0801L23.0295 3.1301C23.3195 2.8401 23.3195 2.3601 23.0295 2.0701C22.7395 1.7801 22.2595 1.7801 21.9695 2.0701L19.0195 5.0201C19.3995 5.3501 19.7495 5.7101 20.0795 6.0801Z" fill="#1F2937"/>
<path d="M18.2498 3.6001C18.2498 3.1901 17.9098 2.8501 17.4998 2.8501C17.0998 2.8501 16.7798 3.1701 16.7598 3.5601C17.2798 3.8101 17.7798 4.0901 18.2498 4.4201V3.6001Z" fill="#1F2937"/>
<path d="M22.2499 7.6001C22.2499 7.1901 21.9099 6.8501 21.4999 6.8501H20.6699C20.9999 7.3201 21.2899 7.8201 21.5299 8.3401C21.9299 8.3201 22.2499 8.0001 22.2499 7.6001Z" fill="#1F2937"/>
<path d="M13.25 15.3501H13.55C13.94 15.3501 14.25 15.0001 14.25 14.5701C14.25 14.0301 14.1 13.9501 13.76 13.8301L13.25 13.6501V15.3501Z" fill="#1F2937"/>
<path d="M21.54 8.3401C21.53 8.3401 21.52 8.3501 21.5 8.3501H17.5C17.4 8.3501 17.31 8.3301 17.21 8.2901C17.03 8.2101 16.88 8.0701 16.8 7.8801C16.77 7.7901 16.75 7.7001 16.75 7.6001V3.6001C16.75 3.5901 16.76 3.5801 16.76 3.5601C15.46 2.9501 14.02 2.6001 12.5 2.6001C6.98 2.6001 2.5 7.0801 2.5 12.6001C2.5 18.1201 6.98 22.6001 12.5 22.6001C18.02 22.6001 22.5 18.1201 22.5 12.6001C22.5 11.0801 22.15 9.6401 21.54 8.3401ZM14.25 12.4201C14.89 12.6401 15.75 13.1101 15.75 14.5801C15.75 15.8301 14.76 16.8601 13.55 16.8601H13.25V17.1101C13.25 17.5201 12.91 17.8601 12.5 17.8601C12.09 17.8601 11.75 17.5201 11.75 17.1101V16.8601H11.67C10.34 16.8601 9.25 15.7401 9.25 14.3601C9.25 13.9401 9.59 13.6001 10 13.6001C10.41 13.6001 10.75 13.9401 10.75 14.3501C10.75 14.9001 11.16 15.3501 11.67 15.3501H11.75V13.1301L10.75 12.7801C10.11 12.5601 9.25 12.0901 9.25 10.6201C9.25 9.3701 10.24 8.3401 11.45 8.3401H11.75V8.1001C11.75 7.6901 12.09 7.3501 12.5 7.3501C12.91 7.3501 13.25 7.6901 13.25 8.1001V8.3501H13.33C14.66 8.3501 15.75 9.4701 15.75 10.8501C15.75 11.2601 15.41 11.6001 15 11.6001C14.59 11.6001 14.25 11.2601 14.25 10.8501C14.25 10.3001 13.84 9.8501 13.33 9.8501H13.25V12.0701L14.25 12.4201Z" fill="#1F2937"/>
<path d="M10.75 10.6301C10.75 11.1701 10.9 11.2501 11.24 11.3701L11.75 11.5501V9.8501H11.45C11.07 9.8501 10.75 10.2001 10.75 10.6301Z" fill="#1F2937"/>
</svg>
