<svg width="16" height="17" viewBox="0 0 16 17" fill="none" xmlns="http://www.w3.org/2000/svg">
<path d="M7.5 12.3167H6C5.26667 12.3167 4.66667 12.9167 4.66667 13.65V13.8167H4C3.72667 13.8167 3.5 14.0434 3.5 14.3167C3.5 14.59 3.72667 14.8167 4 14.8167H12C12.2733 14.8167 12.5 14.59 12.5 14.3167C12.5 14.0434 12.2733 13.8167 12 13.8167H11.3333V13.65C11.3333 12.9167 10.7333 12.3167 10 12.3167H8.5V10.79C8.33333 10.81 8.16667 10.8167 8 10.8167C7.83333 10.8167 7.66667 10.81 7.5 10.79V12.3167Z" fill="#0B80D4"/>
<path d="M12.3195 7.91007C12.7595 7.7434 13.1462 7.47007 13.4529 7.1634C14.0729 6.47673 14.4795 5.65673 14.4795 4.69673C14.4795 3.73673 13.7262 2.9834 12.7662 2.9834H12.3929C11.9595 2.09673 11.0529 1.4834 9.99953 1.4834H5.99953C4.9462 1.4834 4.03953 2.09673 3.6062 2.9834H3.23286C2.27286 2.9834 1.51953 3.73673 1.51953 4.69673C1.51953 5.65673 1.9262 6.47673 2.5462 7.1634C2.85286 7.47007 3.23953 7.7434 3.67953 7.91007C4.37286 9.61673 6.03953 10.8167 7.99953 10.8167C9.95953 10.8167 11.6262 9.61673 12.3195 7.91007ZM9.89287 5.7834L9.47953 6.29007C9.41287 6.3634 9.3662 6.51007 9.37287 6.61006L9.41286 7.2634C9.43953 7.6634 9.15286 7.87007 8.77953 7.7234L8.17286 7.4834C8.07953 7.45007 7.91953 7.45007 7.8262 7.4834L7.21953 7.7234C6.8462 7.87007 6.55953 7.6634 6.5862 7.2634L6.6262 6.61006C6.63286 6.51007 6.5862 6.3634 6.51953 6.29007L6.1062 5.7834C5.8462 5.47673 5.95953 5.13673 6.3462 5.03673L6.97953 4.87673C7.07953 4.85007 7.19953 4.75673 7.25286 4.67007L7.6062 4.1234C7.8262 3.7834 8.17286 3.7834 8.39287 4.1234L8.7462 4.67007C8.79953 4.75673 8.91953 4.85007 9.01953 4.87673L9.65286 5.03673C10.0395 5.13673 10.1529 5.47673 9.89287 5.7834Z" fill="#0B80D4"/>
</svg>
