<svg width="20" height="21" viewBox="0 0 20 21" fill="none" xmlns="http://www.w3.org/2000/svg">
<path d="M15.017 10.9785L14.0003 9.96178C13.7587 9.75345 13.617 9.44512 13.6087 9.10345C13.592 8.72845 13.742 8.35345 14.017 8.07845L15.017 7.07845C15.8837 6.21178 16.2087 5.37845 15.9337 4.72012C15.667 4.07012 14.842 3.71178 13.6253 3.71178H4.91699V2.99512C4.91699 2.65345 4.63366 2.37012 4.29199 2.37012C3.95033 2.37012 3.66699 2.65345 3.66699 2.99512V18.4118C3.66699 18.7535 3.95033 19.0368 4.29199 19.0368C4.63366 19.0368 4.91699 18.7535 4.91699 18.4118V14.3451H13.6253C14.8253 14.3451 15.6337 13.9785 15.9087 13.3201C16.1837 12.6618 15.867 11.8368 15.017 10.9785Z" fill="#252525"/>
</svg>
