<svg width="20" height="21" viewBox="0 0 20 21" fill="none" xmlns="http://www.w3.org/2000/svg">
<path d="M4.29199 19.661C3.95033 19.661 3.66699 19.3777 3.66699 19.036V2.36935C3.66699 2.02769 3.95033 1.74435 4.29199 1.74435C4.63366 1.74435 4.91699 2.02769 4.91699 2.36935V19.036C4.91699 19.3777 4.63366 19.661 4.29199 19.661Z" fill="white"/>
<path d="M13.6253 14.661H4.29199C3.95033 14.661 3.66699 14.3777 3.66699 14.036C3.66699 13.6944 3.95033 13.411 4.29199 13.411H13.6253C14.5337 13.411 14.9587 13.1694 15.042 12.961C15.1253 12.7527 15.0003 12.286 14.3503 11.6444L13.3503 10.6444C12.942 10.286 12.692 9.74437 12.667 9.14437C12.642 8.51104 12.892 7.88604 13.3503 7.42771L14.3503 6.42771C14.967 5.81104 15.1587 5.31104 15.067 5.09437C14.9753 4.87771 14.5003 4.66104 13.6253 4.66104H4.29199C3.94199 4.66104 3.66699 4.37771 3.66699 4.03604C3.66699 3.69437 3.95033 3.41104 4.29199 3.41104H13.6253C15.4503 3.41104 16.0337 4.16937 16.2253 4.61937C16.4087 5.06937 16.5337 6.01937 15.2337 7.31937L14.2337 8.31937C14.0253 8.52771 13.9087 8.81937 13.917 9.11104C13.9253 9.36104 14.0253 9.58604 14.2003 9.74437L15.2337 10.7694C16.5087 12.0444 16.3837 12.9944 16.2003 13.4527C16.0087 13.8944 15.417 14.661 13.6253 14.661Z" fill="white"/>
</svg>
