<svg width="18" height="19" viewBox="0 0 18 19" fill="none" xmlns="http://www.w3.org/2000/svg">
<path d="M8.8423 9.6127C8.4373 9.6127 8.02481 9.5377 7.7023 9.3952L3.2773 7.4302C2.1523 6.9277 1.9873 6.2527 1.9873 5.8852C1.9873 5.5177 2.1523 4.8427 3.2773 4.3402L7.7023 2.3752C8.3548 2.0827 9.3373 2.0827 9.98981 2.3752L14.4223 4.3402C15.5398 4.8352 15.7123 5.5177 15.7123 5.8852C15.7123 6.2527 15.5473 6.9277 14.4223 7.4302L9.98981 9.3952C9.6598 9.5452 9.2548 9.6127 8.8423 9.6127ZM8.8423 3.2827C8.5873 3.2827 8.3398 3.3202 8.1598 3.4027L3.7348 5.3677C3.2773 5.5777 3.1123 5.7877 3.1123 5.8852C3.1123 5.9827 3.2773 6.2002 3.7273 6.4027L8.1523 8.3677C8.5123 8.5252 9.1648 8.5252 9.5248 8.3677L13.9573 6.4027C14.4148 6.2002 14.5798 5.9827 14.5798 5.8852C14.5798 5.7877 14.4148 5.5702 13.9573 5.3677L9.5323 3.4027C9.3523 3.3277 9.0973 3.2827 8.8423 3.2827Z" fill="white"/>
<path d="M9 13.5202C8.715 13.5202 8.43 13.4602 8.16 13.3402L3.0675 11.0752C2.295 10.7377 1.6875 9.8002 1.6875 8.9527C1.6875 8.6452 1.9425 8.3902 2.25 8.3902C2.5575 8.3902 2.8125 8.6452 2.8125 8.9527C2.8125 9.3652 3.15 9.8827 3.525 10.0552L8.6175 12.3202C8.8575 12.4252 9.135 12.4252 9.3825 12.3202L14.475 10.0552C14.85 9.8902 15.1875 9.3652 15.1875 8.9527C15.1875 8.6452 15.4425 8.3902 15.75 8.3902C16.0575 8.3902 16.3125 8.6452 16.3125 8.9527C16.3125 9.8002 15.705 10.7377 14.9325 11.0827L9.84 13.3477C9.57 13.4602 9.285 13.5202 9 13.5202Z" fill="white"/>
<path d="M9 17.2702C8.715 17.2702 8.43 17.2102 8.16 17.0902L3.0675 14.8252C2.2275 14.4502 1.6875 13.6177 1.6875 12.6952C1.6875 12.3877 1.9425 12.1327 2.25 12.1327C2.5575 12.1327 2.8125 12.3952 2.8125 12.7027C2.8125 13.1752 3.09 13.6102 3.525 13.8052L8.6175 16.0702C8.8575 16.1752 9.135 16.1752 9.3825 16.0702L14.475 13.8052C14.91 13.6102 15.1875 13.1827 15.1875 12.7027C15.1875 12.3952 15.4425 12.1402 15.75 12.1402C16.0575 12.1402 16.3125 12.3952 16.3125 12.7027C16.3125 13.6252 15.7725 14.4577 14.9325 14.8327L9.84 17.0977C9.57 17.2102 9.285 17.2702 9 17.2702Z" fill="white"/>
</svg>
