<svg width="18" height="19" viewBox="0 0 18 19" fill="none" xmlns="http://www.w3.org/2000/svg">
<path d="M14.5273 4.36998L10.1323 2.41248C9.48727 2.12748 8.51227 2.12748 7.86727 2.41248L3.47227 4.36998C2.36227 4.86498 2.19727 5.53998 2.19727 5.89998C2.19727 6.25998 2.36227 6.93498 3.47227 7.42998L7.86727 9.38748C8.18977 9.52998 8.59477 9.60498 8.99977 9.60498C9.40477 9.60498 9.80977 9.52998 10.1323 9.38748L14.5273 7.42998C15.6373 6.93498 15.8023 6.25998 15.8023 5.89998C15.8023 5.53998 15.6448 4.86498 14.5273 4.36998Z" fill="#252525"/>
<path d="M9.00023 13.4826C8.71523 13.4826 8.43023 13.4226 8.16774 13.3101L3.11273 11.0601C2.34023 10.7151 1.74023 9.79264 1.74023 8.94514C1.74023 8.63764 1.98773 8.39014 2.29523 8.39014C2.60273 8.39014 2.85023 8.63764 2.85023 8.94514C2.85023 9.35014 3.18773 9.87514 3.56273 10.0401L8.61773 12.2901C8.85773 12.3951 9.13523 12.3951 9.37523 12.2901L14.4302 10.0401C14.8052 9.87514 15.1427 9.35764 15.1427 8.94514C15.1427 8.63764 15.3902 8.39014 15.6977 8.39014C16.0052 8.39014 16.2527 8.63764 16.2527 8.94514C16.2527 9.78514 15.6527 10.7151 14.8802 11.0601L9.82524 13.3101C9.57023 13.4226 9.28523 13.4826 9.00023 13.4826Z" fill="#252525"/>
<path d="M9.00023 17.2029C8.71523 17.2029 8.43023 17.1429 8.16774 17.0304L3.11273 14.7804C2.28023 14.4129 1.74023 13.5804 1.74023 12.6654C1.74023 12.3579 1.98773 12.1104 2.29523 12.1104C2.60273 12.1104 2.85023 12.3579 2.85023 12.6654C2.85023 13.1379 3.12773 13.5654 3.56273 13.7604L8.61773 16.0104C8.85773 16.1154 9.13523 16.1154 9.37523 16.0104L14.4302 13.7604C14.8577 13.5729 15.1427 13.1379 15.1427 12.6654C15.1427 12.3579 15.3902 12.1104 15.6977 12.1104C16.0052 12.1104 16.2527 12.3579 16.2527 12.6654C16.2527 13.5804 15.7127 14.4054 14.8802 14.7804L9.82524 17.0304C9.57023 17.1429 9.28523 17.2029 9.00023 17.2029Z" fill="#252525"/>
</svg>
