<svg width="25" height="25" viewBox="0 0 25 25" fill="none" xmlns="http://www.w3.org/2000/svg">
<path d="M6.65039 19.9702H6.15039C5.24366 19.9702 4.52716 19.67 4.04395 19.187C3.54995 18.693 3.25 17.9756 3.25 17.0698V13.0005C3.25 12.1558 3.51042 11.4761 3.94043 10.9937C4.36862 10.5132 4.99476 10.1933 5.79004 10.1177L6.15039 10.1001H12.9404C13.8466 10.1002 14.5632 10.3997 15.0518 10.8882C15.5404 11.3768 15.8398 12.0941 15.8398 13.0005V17.0698C15.8398 17.394 15.8035 17.686 15.7295 17.9409L15.7256 17.9585C15.4169 19.1844 14.414 19.9701 12.9404 19.9702H10.0684L9.94336 20.0542L6.92285 22.064L6.91602 22.0679C6.81061 22.1405 6.65061 22.073 6.65039 21.9204V19.9702Z" fill="#1F2937" stroke="#1F2937"/>
<path d="M10 3.1001H18.5C20.5739 3.1001 22.25 4.77624 22.25 6.8501V11.9497C22.25 13.1085 21.8683 14.043 21.2285 14.6743L21.2236 14.6792C20.5924 15.3188 19.6586 15.6997 18.5 15.6997H18.3398V13.0005C18.3398 10.0145 15.9264 7.60033 12.9404 7.6001H6.25V6.8501C6.25 4.77624 7.92614 3.1001 10 3.1001Z" fill="#1F2937" stroke="#1F2937"/>
</svg>
