<svg width="23" height="23" viewBox="0 0 23 23" fill="none" xmlns="http://www.w3.org/2000/svg">
<path d="M11.5449 19.6445C9.40907 19.6445 7.27324 19.3053 5.24741 18.627C4.47741 18.3611 3.89074 17.8203 3.63407 17.1145C3.36824 16.4086 3.45991 15.6295 3.88157 14.9328L4.93574 13.182C5.15574 12.8153 5.35741 12.082 5.35741 11.6511V9.00195C5.35741 5.59195 8.13491 2.81445 11.5449 2.81445C14.9549 2.81445 17.7324 5.59195 17.7324 9.00195V11.6511C17.7324 12.0728 17.9341 12.8153 18.1541 13.1911L19.1991 14.9328C19.5932 15.5928 19.6666 16.3903 19.4007 17.1145C19.1349 17.8386 18.5574 18.3886 17.8332 18.627C15.8166 19.3053 13.6807 19.6445 11.5449 19.6445ZM11.5449 4.18945C8.89574 4.18945 6.73241 6.34362 6.73241 9.00195V11.6511C6.73241 12.3203 6.45741 13.3103 6.11824 13.8878L5.06407 15.6386C4.86241 15.9778 4.80741 16.3353 4.92657 16.6378C5.03657 16.9495 5.31157 17.1878 5.68741 17.3161C9.51907 18.5995 13.5799 18.5995 17.4116 17.3161C17.7416 17.2061 17.9982 16.9586 18.1174 16.6286C18.2366 16.2986 18.2091 15.9411 18.0257 15.6386L16.9716 13.8878C16.6232 13.292 16.3574 12.3111 16.3574 11.642V9.00195C16.3574 6.34362 14.2032 4.18945 11.5449 4.18945Z" fill="#292D32"/>
<path d="M13.2496 4.43723C13.1854 4.43723 13.1213 4.42806 13.0571 4.40973C12.7913 4.33639 12.5346 4.28139 12.2871 4.24473C11.5079 4.14389 10.7563 4.19889 10.0504 4.40973C9.79377 4.49223 9.51877 4.40973 9.3446 4.21723C9.17043 4.02473 9.11543 3.74973 9.21627 3.50223C9.5921 2.53973 10.5088 1.90723 11.5538 1.90723C12.5988 1.90723 13.5154 2.53056 13.8913 3.50223C13.9829 3.74973 13.9371 4.02473 13.7629 4.21723C13.6254 4.36389 13.4329 4.43723 13.2496 4.43723Z" fill="#292D32"/>
<path d="M11.5449 21.7344C10.6374 21.7344 9.75742 21.3677 9.11575 20.726C8.47409 20.0844 8.10742 19.2044 8.10742 18.2969H9.48242C9.48242 18.8377 9.70242 19.3694 10.0874 19.7544C10.4724 20.1394 11.0041 20.3594 11.5449 20.3594C12.6816 20.3594 13.6074 19.4335 13.6074 18.2969H14.9824C14.9824 20.1944 13.4424 21.7344 11.5449 21.7344Z" fill="#292D32"/>
</svg>
