<svg width="50" height="51" viewBox="0 0 50 51" fill="none" xmlns="http://www.w3.org/2000/svg">
<circle cx="25" cy="25.6504" r="25" fill="#F2A516"/>
<path d="M37.7011 30.1324L29.7011 15.7324C28.6261 13.7949 27.1386 12.7324 25.5011 12.7324C23.8636 12.7324 22.3761 13.7949 21.3011 15.7324L13.3011 30.1324C12.2886 31.9699 12.1761 33.7324 12.9886 35.1199C13.8011 36.5074 15.4011 37.2699 17.5011 37.2699H33.5011C35.6011 37.2699 37.2011 36.5074 38.0136 35.1199C38.8261 33.7324 38.7136 31.9574 37.7011 30.1324ZM24.5636 21.4824C24.5636 20.9699 24.9886 20.5449 25.5011 20.5449C26.0136 20.5449 26.4386 20.9699 26.4386 21.4824V27.7324C26.4386 28.2449 26.0136 28.6699 25.5011 28.6699C24.9886 28.6699 24.5636 28.2449 24.5636 27.7324V21.4824ZM26.3886 32.3699C26.3261 32.4199 26.2636 32.4699 26.2011 32.5199C26.1261 32.5699 26.0511 32.6074 25.9761 32.6324C25.9011 32.6699 25.8261 32.6949 25.7386 32.7074C25.6636 32.7199 25.5761 32.7324 25.5011 32.7324C25.4261 32.7324 25.3386 32.7199 25.2511 32.7074C25.1761 32.6949 25.1011 32.6699 25.0261 32.6324C24.9511 32.6074 24.8761 32.5699 24.8011 32.5199C24.7386 32.4699 24.6761 32.4199 24.6136 32.3699C24.3886 32.1324 24.2511 31.8074 24.2511 31.4824C24.2511 31.1574 24.3886 30.8324 24.6136 30.5949C24.6761 30.5449 24.7386 30.4949 24.8011 30.4449C24.8761 30.3949 24.9511 30.3574 25.0261 30.3324C25.1011 30.2949 25.1761 30.2699 25.2511 30.2574C25.4136 30.2199 25.5886 30.2199 25.7386 30.2574C25.8261 30.2699 25.9011 30.2949 25.9761 30.3324C26.0511 30.3574 26.1261 30.3949 26.2011 30.4449C26.2636 30.4949 26.3261 30.5449 26.3886 30.5949C26.6136 30.8324 26.7511 31.1574 26.7511 31.4824C26.7511 31.8074 26.6136 32.1324 26.3886 32.3699Z" fill="white"/>
</svg>
