<svg width="108" height="21" viewBox="0 0 108 21" fill="none" xmlns="http://www.w3.org/2000/svg">
<path d="M10 0.649902L12.2451 7.55973H19.5106L13.6327 11.8302L15.8779 18.7401L10 14.4696L4.12215 18.7401L6.36729 11.8302L0.489435 7.55973H7.75486L10 0.649902Z" fill="#FBBC04"/>
<path d="M32 0.649902L34.2451 7.55973H41.5106L35.6327 11.8302L37.8779 18.7401L32 14.4696L26.1221 18.7401L28.3673 11.8302L22.4894 7.55973H29.7549L32 0.649902Z" fill="#FBBC04"/>
<path d="M54 0.649902L56.2451 7.55973H63.5106L57.6327 11.8302L59.8779 18.7401L54 14.4696L48.1221 18.7401L50.3673 11.8302L44.4894 7.55973H51.7549L54 0.649902Z" fill="#FBBC04"/>
<path d="M76 0.649902L78.2451 7.55973H85.5106L79.6327 11.8302L81.8779 18.7401L76 14.4696L70.1221 18.7401L72.3673 11.8302L66.4894 7.55973H73.7549L76 0.649902Z" fill="#FBBC04"/>
<path d="M99.7695 7.71436L99.8818 8.06006H105.971L101.339 11.4253L101.045 11.6392L101.157 11.9849L102.926 17.4302L98.2939 14.0649L98 13.8511L97.7061 14.0649L93.0732 17.4302L94.8428 11.9849L94.9551 11.6392L94.6611 11.4253L90.0293 8.06006H96.1182L96.2305 7.71436L98 2.26709L99.7695 7.71436Z" stroke="#FBBC04"/>
</svg>
