<svg width="18" height="19" viewBox="0 0 18 19" fill="none" xmlns="http://www.w3.org/2000/svg">
<path d="M11.0253 17.7652H6.97531C3.27031 17.7652 1.69531 16.1827 1.69531 12.4852V9.11771C1.69531 8.81021 1.95031 8.55521 2.25781 8.55521C2.56531 8.55521 2.82031 8.81021 2.82031 9.11771V12.4852C2.82031 15.5527 3.90781 16.6402 6.97531 16.6402H11.0178C14.0853 16.6402 15.1728 15.5527 15.1728 12.4852V9.11771C15.1728 8.81021 15.4278 8.55521 15.7353 8.55521C16.0428 8.55521 16.2978 8.81021 16.2978 9.11771V12.4852C16.3053 16.1827 14.7228 17.7652 11.0253 17.7652Z" fill="white"/>
<path d="M9.00025 10.2652C8.17525 10.2652 7.42524 9.9427 6.89274 9.3502C6.36024 8.7577 6.11275 7.9852 6.19525 7.1602L6.69775 2.1502C6.72775 1.8652 6.96775 1.6402 7.26025 1.6402H10.7627C11.0552 1.6402 11.2952 1.8577 11.3252 2.1502L11.8277 7.1602C11.9102 7.9852 11.6627 8.7577 11.1302 9.3502C10.5752 9.9427 9.82525 10.2652 9.00025 10.2652ZM7.76275 2.7652L7.31275 7.2727C7.26025 7.7752 7.41025 8.2477 7.72525 8.5927C8.36275 9.2977 9.63775 9.2977 10.2752 8.5927C10.5902 8.2402 10.7402 7.7677 10.6877 7.2727L10.2377 2.7652H7.76275Z" fill="white"/>
<path d="M13.732 10.2652C12.2095 10.2652 10.852 9.0352 10.6945 7.5202L10.1695 2.2627C10.1545 2.1052 10.207 1.9477 10.312 1.8277C10.417 1.7077 10.567 1.6402 10.732 1.6402H13.0195C15.2245 1.6402 16.252 2.5627 16.5595 4.8277L16.7695 6.9127C16.8595 7.7977 16.5895 8.6377 16.012 9.2752C15.4345 9.9127 14.6245 10.2652 13.732 10.2652ZM11.3545 2.7652L11.8195 7.4077C11.917 8.3452 12.787 9.1402 13.732 9.1402C14.302 9.1402 14.812 8.9227 15.1795 8.5252C15.5395 8.1277 15.7045 7.5952 15.652 7.0252L15.442 4.9627C15.2095 3.2677 14.662 2.7652 13.0195 2.7652H11.3545Z" fill="white"/>
<path d="M4.23026 10.2652C3.33776 10.2652 2.52776 9.9127 1.95026 9.2752C1.37276 8.6377 1.10276 7.7977 1.19276 6.9127L1.39526 4.8502C1.71026 2.5627 2.73776 1.6402 4.94276 1.6402H7.23026C7.38776 1.6402 7.53776 1.7077 7.65026 1.8277C7.76276 1.9477 7.80776 2.1052 7.79276 2.2627L7.26776 7.5202C7.11026 9.0352 5.75276 10.2652 4.23026 10.2652ZM4.94276 2.7652C3.30026 2.7652 2.75276 3.2602 2.51276 4.9777L2.31026 7.0252C2.25026 7.5952 2.42276 8.1277 2.78276 8.5252C3.14276 8.9227 3.65276 9.1402 4.23026 9.1402C5.17526 9.1402 6.05276 8.3452 6.14276 7.4077L6.60776 2.7652H4.94276Z" fill="white"/>
<path d="M10.875 17.7652H7.125C6.8175 17.7652 6.5625 17.5102 6.5625 17.2027V15.3277C6.5625 13.7527 7.425 12.8902 9 12.8902C10.575 12.8902 11.4375 13.7527 11.4375 15.3277V17.2027C11.4375 17.5102 11.1825 17.7652 10.875 17.7652ZM7.6875 16.6402H10.3125V15.3277C10.3125 14.3827 9.945 14.0152 9 14.0152C8.055 14.0152 7.6875 14.3827 7.6875 15.3277V16.6402Z" fill="white"/>
</svg>
