<svg width="18" height="19" viewBox="0 0 18 19" fill="none" xmlns="http://www.w3.org/2000/svg">
<path d="M16.7697 6.90514L16.5522 4.82764C16.2372 2.56264 15.2097 1.64014 13.0122 1.64014H11.2422H10.1322H7.85224H6.74224H4.94224C2.73724 1.64014 1.71724 2.56264 1.39474 4.85014L1.19224 6.91264C1.11724 7.71514 1.33474 8.49514 1.80724 9.10264C2.37724 9.84514 3.25474 10.2651 4.22974 10.2651C5.17474 10.2651 6.08224 9.79264 6.65224 9.03514C7.16224 9.79264 8.03224 10.2651 8.99974 10.2651C9.96724 10.2651 10.8147 9.81514 11.3322 9.06514C11.9097 9.80764 12.8022 10.2651 13.7322 10.2651C14.7297 10.2651 15.6297 9.82264 16.1922 9.04264C16.6422 8.44264 16.8447 7.68514 16.7697 6.90514Z" fill="#252525"/>
<path d="M8.51234 13.1976C7.55984 13.2951 6.83984 14.1051 6.83984 15.0651V17.1201C6.83984 17.3226 7.00484 17.4876 7.20734 17.4876H10.7848C10.9873 17.4876 11.1523 17.3226 11.1523 17.1201V15.3276C11.1598 13.7601 10.2373 13.0176 8.51234 13.1976Z" fill="#252525"/>
<path d="M16.0277 11.5027V13.7377C16.0277 15.8077 14.3477 17.4877 12.2777 17.4877C12.0752 17.4877 11.9102 17.3227 11.9102 17.1202V15.3277C11.9102 14.3677 11.6177 13.6177 11.0477 13.1077C10.5452 12.6502 9.86266 12.4252 9.01516 12.4252C8.82766 12.4252 8.64016 12.4327 8.43766 12.4552C7.10266 12.5902 6.09016 13.7152 6.09016 15.0652V17.1202C6.09016 17.3227 5.92516 17.4877 5.72266 17.4877C3.65266 17.4877 1.97266 15.8077 1.97266 13.7377V11.5177C1.97266 10.9927 2.49016 10.6402 2.97766 10.8127C3.18016 10.8802 3.38266 10.9327 3.59266 10.9627C3.68266 10.9777 3.78016 10.9927 3.87016 10.9927C3.99016 11.0077 4.11016 11.0152 4.23016 11.0152C5.10016 11.0152 5.95516 10.6927 6.63016 10.1377C7.27516 10.6927 8.11516 11.0152 9.00016 11.0152C9.89266 11.0152 10.7177 10.7077 11.3627 10.1527C12.0377 10.7002 12.8777 11.0152 13.7327 11.0152C13.8677 11.0152 14.0027 11.0077 14.1302 10.9927C14.2202 10.9852 14.3027 10.9777 14.3852 10.9627C14.6177 10.9327 14.8277 10.8652 15.0377 10.7977C15.5252 10.6327 16.0277 10.9927 16.0277 11.5027Z" fill="#252525"/>
</svg>
