<svg width="20" height="21" viewBox="0 0 20 21" fill="none" xmlns="http://www.w3.org/2000/svg">
<path d="M10 13.8277C8.275 13.8277 6.875 12.4277 6.875 10.7027C6.875 8.9777 8.275 7.5777 10 7.5777C11.725 7.5777 13.125 8.9777 13.125 10.7027C13.125 12.4277 11.725 13.8277 10 13.8277ZM10 8.8277C8.96667 8.8277 8.125 9.66936 8.125 10.7027C8.125 11.736 8.96667 12.5777 10 12.5777C11.0333 12.5777 11.875 11.736 11.875 10.7027C11.875 9.66936 11.0333 8.8277 10 8.8277Z" fill="white"/>
<path d="M12.6753 19.1944C12.5003 19.1944 12.3253 19.1694 12.1503 19.1277C11.6337 18.986 11.2003 18.661 10.9253 18.2027L10.8253 18.036C10.3337 17.186 9.65866 17.186 9.16699 18.036L9.07533 18.1944C8.80033 18.661 8.36699 18.9944 7.85033 19.1277C7.32533 19.2694 6.78366 19.1944 6.32533 18.9194L4.89199 18.0944C4.38366 17.8027 4.01699 17.3277 3.85866 16.7527C3.70866 16.1777 3.78366 15.586 4.07533 15.0777C4.31699 14.6527 4.38366 14.2694 4.24199 14.0277C4.10033 13.786 3.74199 13.6444 3.25033 13.6444C2.03366 13.6444 1.04199 12.6527 1.04199 11.436V9.96938C1.04199 8.75271 2.03366 7.76105 3.25033 7.76105C3.74199 7.76105 4.10033 7.61938 4.24199 7.37771C4.38366 7.13605 4.32533 6.75271 4.07533 6.32771C3.78366 5.81938 3.70866 5.21938 3.85866 4.65271C4.00866 4.07771 4.37533 3.60271 4.89199 3.31105L6.33366 2.48605C7.27533 1.92771 8.51699 2.25271 9.08366 3.21105L9.18366 3.37771C9.67533 4.22771 10.3503 4.22771 10.842 3.37771L10.9337 3.21938C11.5003 2.25271 12.742 1.92771 13.692 2.49438L15.1253 3.31938C15.6337 3.61105 16.0003 4.08605 16.1587 4.66105C16.3087 5.23605 16.2337 5.82771 15.942 6.33605C15.7003 6.76105 15.6337 7.14438 15.7753 7.38605C15.917 7.62771 16.2753 7.76938 16.767 7.76938C17.9837 7.76938 18.9753 8.76105 18.9753 9.97771V11.4444C18.9753 12.661 17.9837 13.6527 16.767 13.6527C16.2753 13.6527 15.917 13.7944 15.7753 14.036C15.6337 14.2777 15.692 14.661 15.942 15.086C16.2337 15.5944 16.317 16.1944 16.1587 16.761C16.0087 17.336 15.642 17.811 15.1253 18.1027L13.6837 18.9277C13.367 19.1027 13.0253 19.1944 12.6753 19.1944ZM10.0003 16.111C10.742 16.111 11.4337 16.5777 11.9087 17.4027L12.0003 17.561C12.1003 17.736 12.267 17.861 12.467 17.911C12.667 17.961 12.867 17.936 13.0337 17.836L14.4753 17.0027C14.692 16.8777 14.8587 16.6694 14.9253 16.4194C14.992 16.1694 14.9587 15.911 14.8337 15.6944C14.3587 14.8777 14.3003 14.036 14.667 13.3944C15.0337 12.7527 15.792 12.386 16.742 12.386C17.2753 12.386 17.7003 11.961 17.7003 11.4277V9.96105C17.7003 9.43605 17.2753 9.00271 16.742 9.00271C15.792 9.00271 15.0337 8.63605 14.667 7.99438C14.3003 7.35271 14.3587 6.51105 14.8337 5.69438C14.9587 5.47771 14.992 5.21938 14.9253 4.96938C14.8587 4.71938 14.7003 4.51938 14.4837 4.38605L13.042 3.56105C12.6837 3.34438 12.2087 3.46938 11.992 3.83605L11.9003 3.99438C11.4253 4.81938 10.7337 5.28605 9.99199 5.28605C9.25033 5.28605 8.55866 4.81938 8.08366 3.99438L7.99199 3.82771C7.78366 3.47771 7.31699 3.35271 6.95866 3.56105L5.51699 4.39438C5.30033 4.51938 5.13366 4.72771 5.06699 4.97771C5.00033 5.22771 5.03366 5.48605 5.15866 5.70271C5.63366 6.51938 5.69199 7.36105 5.32533 8.00271C4.95866 8.64438 4.20033 9.01105 3.25033 9.01105C2.71699 9.01105 2.29199 9.43605 2.29199 9.96938V11.436C2.29199 11.961 2.71699 12.3944 3.25033 12.3944C4.20033 12.3944 4.95866 12.761 5.32533 13.4027C5.69199 14.0444 5.63366 14.886 5.15866 15.7027C5.03366 15.9194 5.00033 16.1777 5.06699 16.4277C5.13366 16.6777 5.29199 16.8777 5.50866 17.011L6.95033 17.836C7.12533 17.9444 7.33366 17.9694 7.52533 17.9194C7.72533 17.8694 7.89199 17.736 8.00033 17.561L8.09199 17.4027C8.56699 16.586 9.25866 16.111 10.0003 16.111Z" fill="white"/>
</svg>
