<svg width="20" height="21" viewBox="0 0 20 21" fill="none" xmlns="http://www.w3.org/2000/svg">
<path d="M16.7503 8.386C15.242 8.386 14.6253 7.31933 15.3753 6.011C15.8087 5.25267 15.5503 4.286 14.792 3.85267L13.3503 3.02767C12.692 2.636 11.842 2.86933 11.4503 3.52767L11.3587 3.686C10.6087 4.99433 9.37533 4.99433 8.61699 3.686L8.52533 3.52767C8.15033 2.86933 7.30033 2.636 6.64199 3.02767L5.20033 3.85267C4.44199 4.286 4.18366 5.261 4.61699 6.01933C5.37533 7.31933 4.75866 8.386 3.25033 8.386C2.38366 8.386 1.66699 9.09433 1.66699 9.96933V11.436C1.66699 12.3027 2.37533 13.0193 3.25033 13.0193C4.75866 13.0193 5.37533 14.086 4.61699 15.3943C4.18366 16.1527 4.44199 17.1193 5.20033 17.5527L6.64199 18.3777C7.30033 18.7693 8.15033 18.536 8.54199 17.8777L8.63366 17.7193C9.38366 16.411 10.617 16.411 11.3753 17.7193L11.467 17.8777C11.8587 18.536 12.7087 18.7693 13.367 18.3777L14.8087 17.5527C15.567 17.1193 15.8253 16.1443 15.392 15.3943C14.6337 14.086 15.2503 13.0193 16.7587 13.0193C17.6253 13.0193 18.342 12.311 18.342 11.436V9.96933C18.3337 9.10266 17.6253 8.386 16.7503 8.386ZM10.0003 13.411C8.50866 13.411 7.29199 12.1943 7.29199 10.7027C7.29199 9.211 8.50866 7.99433 10.0003 7.99433C11.492 7.99433 12.7087 9.211 12.7087 10.7027C12.7087 12.1943 11.492 13.411 10.0003 13.411Z" fill="#252525"/>
</svg>
