<svg width="25" height="25" viewBox="0 0 25 25" fill="none" xmlns="http://www.w3.org/2000/svg">
<path d="M16.917 20.1499C17.6073 20.1499 18.167 20.7095 18.167 21.3999C18.167 22.0903 17.6073 22.6499 16.917 22.6499C16.2266 22.6499 15.667 22.0903 15.667 21.3999C15.667 20.7095 16.2266 20.1499 16.917 20.1499Z" fill="#574E35" stroke="#574E35"/>
<path d="M8.91699 20.1499C9.60735 20.1499 10.167 20.7095 10.167 21.3999C10.167 22.0903 9.60735 22.6499 8.91699 22.6499C8.22664 22.6499 7.66699 22.0903 7.66699 21.3999C7.66699 20.7095 8.22664 20.1499 8.91699 20.1499Z" fill="#574E35" stroke="#574E35"/>
<path d="M5.50699 4.5899L5.30699 7.0399C5.26699 7.5099 5.63699 7.8999 6.10699 7.8999H21.417C21.837 7.8999 22.187 7.5799 22.217 7.1599C22.347 5.3899 20.997 3.9499 19.227 3.9499H6.93699C6.83699 3.5099 6.63699 3.0899 6.32699 2.7399C5.82699 2.2099 5.12699 1.8999 4.40699 1.8999H2.66699C2.25699 1.8999 1.91699 2.2399 1.91699 2.6499C1.91699 3.0599 2.25699 3.3999 2.66699 3.3999H4.40699C4.71699 3.3999 5.00699 3.5299 5.21699 3.7499C5.42699 3.9799 5.52699 4.2799 5.50699 4.5899Z" fill="#1F2937"/>
<path d="M21.177 9.3999H5.83705C5.41705 9.3999 5.07704 9.7199 5.03704 10.1299L4.67705 14.4799C4.53705 16.1899 5.87705 17.6499 7.58705 17.6499H18.707C20.207 17.6499 21.527 16.4199 21.637 14.9199L21.967 10.2499C22.007 9.7899 21.647 9.3999 21.177 9.3999Z" fill="#1F2937"/>
</svg>
