<svg width="49" height="21" viewBox="0 0 49 21" fill="none" xmlns="http://www.w3.org/2000/svg">
<path d="M48.0641 10.9837C48.0641 7.56579 46.4085 4.86886 43.2443 4.86886C40.0668 4.86886 38.1442 7.56579 38.1442 10.957C38.1442 14.9757 40.4139 17.005 43.6716 17.005C45.2603 17.005 46.4619 16.6446 47.3698 16.1372V13.467C46.4619 13.9209 45.4206 14.2013 44.0988 14.2013C42.8037 14.2013 41.6555 13.7474 41.5087 12.1719H48.0374C48.0374 11.9984 48.0641 11.3041 48.0641 10.9837ZM41.4686 9.71532C41.4686 8.20664 42.3899 7.57914 43.231 7.57914C44.0454 7.57914 44.9132 8.20664 44.9132 9.71532H41.4686ZM32.9907 4.86886C31.6822 4.86886 30.8411 5.48301 30.3738 5.91025L30.2003 5.08248H27.263V20.6499L30.6008 19.9423L30.6142 16.1639C31.0948 16.5111 31.8024 17.005 32.9773 17.005C35.3672 17.005 37.5434 15.0825 37.5434 10.8502C37.53 6.97834 35.3271 4.86886 32.9907 4.86886ZM32.1896 14.0678C31.4019 14.0678 30.9346 13.7874 30.6142 13.4403L30.6008 8.48702C30.9479 8.09984 31.4286 7.83281 32.1896 7.83281C33.4045 7.83281 34.2457 9.19463 34.2457 10.9436C34.2457 12.7327 33.4179 14.0678 32.1896 14.0678ZM22.6702 4.08114L26.0214 3.36018V0.649902L22.6702 1.35751V4.08114ZM22.6702 5.09583H26.0214V16.7781H22.6702V5.09583ZM19.0788 6.08381L18.8652 5.09583H15.9813V16.7781H19.3191V8.86085C20.1068 7.83281 21.4419 8.01973 21.8558 8.16659V5.09583C21.4286 4.93562 19.8665 4.64189 19.0788 6.08381ZM12.4032 2.19863L9.14553 2.89289L9.13218 13.5872C9.13218 15.5631 10.6142 17.0184 12.5901 17.0184C13.6849 17.0184 14.486 16.8181 14.9266 16.5778V13.8675C14.4993 14.0411 12.3899 14.6552 12.3899 12.6793V7.93962H14.9266V5.09583H12.3899L12.4032 2.19863ZM3.37784 8.48702C3.37784 7.96632 3.80507 7.76606 4.51268 7.76606C5.52737 7.76606 6.80908 8.07313 7.82377 8.62053V5.48301C6.71562 5.04243 5.62083 4.86886 4.51268 4.86886C1.8024 4.86886 0 6.28408 0 8.64723C0 12.3321 5.07343 11.7447 5.07343 13.3335C5.07343 13.9476 4.53939 14.1479 3.79172 14.1479C2.68358 14.1479 1.26836 13.694 0.146862 13.0798V16.2574C1.38852 16.7914 2.64352 17.0184 3.79172 17.0184C6.56876 17.0184 8.47797 15.6432 8.47797 13.2534C8.46462 9.27474 3.37784 9.98235 3.37784 8.48702Z" fill="#635BFF"/>
</svg>
