<svg width="18" height="18" viewBox="0 0 18 18" fill="none" xmlns="http://www.w3.org/2000/svg">
<path d="M9 17.1075C8.4825 17.1075 7.995 16.845 7.65 16.3875L6.525 14.8875C6.5025 14.8575 6.4125 14.8125 6.3675 14.8125H6C2.8725 14.8125 0.9375 13.965 0.9375 9.75V6C0.9375 2.685 2.685 0.9375 6 0.9375H10.5C10.8075 0.9375 11.0625 1.1925 11.0625 1.5C11.0625 1.8075 10.8075 2.0625 10.5 2.0625H6C3.315 2.0625 2.0625 3.315 2.0625 6V9.75C2.0625 13.14 3.225 13.6875 6 13.6875H6.375C6.7575 13.6875 7.1925 13.905 7.425 14.2125L8.55 15.7125C8.8125 16.0575 9.1875 16.0575 9.45 15.7125L10.575 14.2125C10.8225 13.8825 11.2125 13.6875 11.625 13.6875H12C14.685 13.6875 15.9375 12.435 15.9375 9.75V7.5C15.9375 7.1925 16.1925 6.9375 16.5 6.9375C16.8075 6.9375 17.0625 7.1925 17.0625 7.5V9.75C17.0625 13.065 15.315 14.8125 12 14.8125H11.625C11.565 14.8125 11.5125 14.8425 11.475 14.8875L10.35 16.3875C10.005 16.845 9.5175 17.1075 9 17.1075Z" fill="white"/>
<path d="M9 9C8.58 9 8.25 8.6625 8.25 8.25C8.25 7.8375 8.5875 7.5 9 7.5C9.4125 7.5 9.75 7.8375 9.75 8.25C9.75 8.6625 9.42 9 9 9Z" fill="white"/>
<path d="M12 9C11.58 9 11.25 8.6625 11.25 8.25C11.25 7.8375 11.5875 7.5 12 7.5C12.4125 7.5 12.75 7.8375 12.75 8.25C12.75 8.6625 12.42 9 12 9Z" fill="white"/>
<path d="M6 9C5.58 9 5.25 8.6625 5.25 8.25C5.25 7.8375 5.5875 7.5 6 7.5C6.4125 7.5 6.75 7.8375 6.75 8.25C6.75 8.6625 6.42 9 6 9Z" fill="white"/>
<path d="M14.625 5.8125C13.2825 5.8125 12.1875 4.7175 12.1875 3.375C12.1875 2.0325 13.2825 0.9375 14.625 0.9375C15.9675 0.9375 17.0625 2.0325 17.0625 3.375C17.0625 4.7175 15.9675 5.8125 14.625 5.8125ZM14.625 2.0625C13.905 2.0625 13.3125 2.655 13.3125 3.375C13.3125 4.095 13.905 4.6875 14.625 4.6875C15.345 4.6875 15.9375 4.095 15.9375 3.375C15.9375 2.655 15.345 2.0625 14.625 2.0625Z" fill="white"/>
</svg>
