<svg width="18" height="18" viewBox="0 0 18 18" fill="none" xmlns="http://www.w3.org/2000/svg">
<path d="M15 5.0625C16.1391 5.0625 17.0625 4.13909 17.0625 3C17.0625 1.86091 16.1391 0.9375 15 0.9375C13.8609 0.9375 12.9375 1.86091 12.9375 3C12.9375 4.13909 13.8609 5.0625 15 5.0625Z" fill="#252525"/>
<path d="M14.28 6.1125C13.1025 5.8575 12.1425 4.8975 11.8875 3.72C11.79 3.2625 11.7825 2.82 11.865 2.4C11.9625 1.935 11.6175 1.5 11.1375 1.5H5.25C3.18 1.5 1.5 3.18 1.5 5.25V10.4625C1.5 12.5325 3.18 14.2125 5.25 14.2125H6.375C6.585 14.2125 6.855 14.3475 6.975 14.5125L8.1 16.005C8.595 16.665 9.405 16.665 9.9 16.005L11.025 14.5125C11.1675 14.325 11.385 14.2125 11.625 14.2125H12.7575C14.8275 14.2125 16.5 12.54 16.5 10.47V6.8625C16.5 6.39 16.065 6.045 15.6 6.135C15.18 6.21 14.7375 6.21 14.28 6.1125ZM6 9C5.58 9 5.25 8.6625 5.25 8.25C5.25 7.8375 5.58 7.5 6 7.5C6.4125 7.5 6.75 7.8375 6.75 8.25C6.75 8.6625 6.42 9 6 9ZM9 9C8.58 9 8.25 8.6625 8.25 8.25C8.25 7.8375 8.58 7.5 9 7.5C9.4125 7.5 9.75 7.8375 9.75 8.25C9.75 8.6625 9.42 9 9 9ZM12 9C11.58 9 11.25 8.6625 11.25 8.25C11.25 7.8375 11.58 7.5 12 7.5C12.4125 7.5 12.75 7.8375 12.75 8.25C12.75 8.6625 12.42 9 12 9Z" fill="#252525"/>
</svg>
