<svg width="18" height="19" viewBox="0 0 18 19" fill="none" xmlns="http://www.w3.org/2000/svg">
<path d="M16.5 7.6402H1.5C1.1925 7.6402 0.9375 7.3852 0.9375 7.0777C0.9375 6.7702 1.1925 6.5152 1.5 6.5152H16.5C16.8075 6.5152 17.0625 6.7702 17.0625 7.0777C17.0625 7.3852 16.8075 7.6402 16.5 7.6402Z" fill="white"/>
<path d="M6 13.6402H4.5C4.1925 13.6402 3.9375 13.3852 3.9375 13.0777C3.9375 12.7702 4.1925 12.5152 4.5 12.5152H6C6.3075 12.5152 6.5625 12.7702 6.5625 13.0777C6.5625 13.3852 6.3075 13.6402 6 13.6402Z" fill="white"/>
<path d="M10.875 13.6402H7.875C7.5675 13.6402 7.3125 13.3852 7.3125 13.0777C7.3125 12.7702 7.5675 12.5152 7.875 12.5152H10.875C11.1825 12.5152 11.4375 12.7702 11.4375 13.0777C11.4375 13.3852 11.1825 13.6402 10.875 13.6402Z" fill="white"/>
<path d="M13.17 16.6402H4.83C1.845 16.6402 0.9375 15.7402 0.9375 12.7852V6.6202C0.9375 3.6652 1.845 2.7652 4.83 2.7652H13.1625C16.1475 2.7652 17.055 3.6652 17.055 6.6202V12.7777C17.0625 15.7402 16.155 16.6402 13.17 16.6402ZM4.83 3.8902C2.475 3.8902 2.0625 4.2952 2.0625 6.6202V12.7777C2.0625 15.1027 2.475 15.5077 4.83 15.5077H13.1625C15.5175 15.5077 15.93 15.1027 15.93 12.7777V6.6202C15.93 4.2952 15.5175 3.8902 13.1625 3.8902H4.83Z" fill="white"/>
</svg>
