<svg width="18" height="19" viewBox="0 0 18 19" fill="none" xmlns="http://www.w3.org/2000/svg">
<path d="M16.5 6.36494C16.5 6.85994 16.095 7.26494 15.6 7.26494H2.4C1.905 7.26494 1.5 6.85994 1.5 6.36494V6.35744C1.5 4.63994 2.8875 3.25244 4.605 3.25244H13.3875C15.105 3.25244 16.5 4.64744 16.5 6.36494Z" fill="#252525"/>
<path d="M1.5 9.29014V13.0476C1.5 14.7651 2.8875 16.1526 4.605 16.1526H13.3875C15.105 16.1526 16.5 14.7576 16.5 13.0401V9.29014C16.5 8.79514 16.095 8.39014 15.6 8.39014H2.4C1.905 8.39014 1.5 8.79514 1.5 9.29014ZM6 13.6401H4.5C4.1925 13.6401 3.9375 13.3851 3.9375 13.0776C3.9375 12.7701 4.1925 12.5151 4.5 12.5151H6C6.3075 12.5151 6.5625 12.7701 6.5625 13.0776C6.5625 13.3851 6.3075 13.6401 6 13.6401ZM10.875 13.6401H7.875C7.5675 13.6401 7.3125 13.3851 7.3125 13.0776C7.3125 12.7701 7.5675 12.5151 7.875 12.5151H10.875C11.1825 12.5151 11.4375 12.7701 11.4375 13.0776C11.4375 13.3851 11.1825 13.6401 10.875 13.6401Z" fill="#252525"/>
</svg>
